<svg width="210" height="210" viewBox="0 0 210 210" fill="none" xmlns="http://www.w3.org/2000/svg">
<rect x="2.5" y="2.5" width="205" height="205" rx="12.5" stroke="#219653" stroke-width="5"/>
<rect x="19.7494" y="19.7494" width="60.0117" height="60.0117" rx="12.5" stroke="#219653" stroke-width="5"/>
<rect x="129.773" y="129.773" width="60.0117" height="60.0117" rx="12.5" stroke="#219653" stroke-width="5"/>
<rect x="129.773" y="19.7494" width="60.0117" height="60.0117" rx="12.5" stroke="#219653" stroke-width="5"/>
<rect x="19.7494" y="129.773" width="60.0117" height="60.0117" rx="12.5" stroke="#219653" stroke-width="5"/>
<path d="M50.9208 80.5245C50.9208 100.105 55.5828 105.466 86.8182 105.466" stroke="#219653" stroke-width="5"/>
<path d="M50.9208 129.709C50.9208 110.128 55.5828 104.767 86.8182 104.767" stroke="#219653" stroke-width="5"/>
<path d="M159.312 80.5245C159.312 100.105 154.65 105.466 123.415 105.466" stroke="#219653" stroke-width="5"/>
<path d="M159.312 129.709C159.312 110.128 154.65 104.767 123.415 104.767" stroke="#219653" stroke-width="5"/>
<rect x="83.6189" y="83.6189" width="42.296" height="42.296" rx="12.5" fill="#219653" stroke="#63EBBA" stroke-width="5"/>
</svg>
