<svg width="311" height="263" viewBox="0 0 311 263" fill="none" xmlns="http://www.w3.org/2000/svg">
<rect x="2.87479" y="2.64789" width="134" height="81" rx="7.5" stroke="#219653" stroke-width="5"/>
<path d="M133.766 4L69.0948 42.5177" stroke="#219653" stroke-width="5"/>
<path d="M4.55582 4L69.2275 42.5177" stroke="#219653" stroke-width="5"/>
<rect x="46" y="107" width="182" height="18" fill="#219653"/>
<rect x="45.2009" y="107.5" width="185.299" height="153" rx="7.5" stroke="#219653" stroke-width="5"/>
<path d="M185 56C224.433 23.163 268.379 22.174 309 56" stroke="#219653" stroke-width="5"/>
<path d="M185 56C224.433 95.4044 268.379 96.5912 309 56" stroke="#219653" stroke-width="5"/>
<circle cx="246.5" cy="59.5" r="18.5" fill="#63EBBA"/>
<ellipse cx="247" cy="59.5" rx="11" ry="11.5" fill="#219653"/>
<path d="M93 192.174C96.1034 204.116 107.617 228 128.845 228C155.379 228 156.776 161 178.655 161C200.534 161 201.931 192.174 228.466 192.174C249.693 192.174 255 171.391 255 161" stroke="#63EBBA" stroke-width="10"/>
</svg>
