<svg width="230" height="230" viewBox="0 0 230 230" fill="none" xmlns="http://www.w3.org/2000/svg">
<path d="M180.993 22.0287L182.761 23.7965L185.823 20.7346L181.64 19.6139L180.993 22.0287ZM175.325 20.5099L174.678 22.9247L174.678 22.9247L175.325 20.5099ZM150.891 52.1307L149.124 50.363L147.356 52.1307L149.124 53.8985L150.891 52.1307ZM178.248 79.4876L176.481 81.2554L178.248 83.0231L180.016 81.2554L178.248 79.4876ZM208.16 49.5759L210.575 48.9289L209.454 44.7463L206.392 47.8081L208.16 49.5759ZM209.54 54.7245L207.125 55.3716L207.125 55.3716L209.54 54.7245ZM158.759 105.505L159.406 103.09L159.406 103.09L158.759 105.505ZM152.966 103.953L152.319 106.368L152.319 106.368L152.966 103.953ZM149.108 102.695L150.008 100.363L148.49 99.7771L147.34 100.928L149.108 102.695ZM127.54 81.4147L129.308 83.1824L130.475 82.015L129.86 80.483L127.54 81.4147ZM126.096 77.0831L128.511 76.436L128.511 76.436L126.096 77.0831ZM124.544 71.2906L126.959 70.6435L126.959 70.6435L124.544 71.2906ZM181.64 19.6139L175.972 18.095L174.678 22.9247L180.346 24.4436L181.64 19.6139ZM152.659 53.8985L182.761 23.7965L179.226 20.261L149.124 50.363L152.659 53.8985ZM180.016 77.7198L152.659 50.363L149.124 53.8985L176.481 81.2554L180.016 77.7198ZM206.392 47.8081L176.481 77.7198L180.016 81.2554L209.928 51.3437L206.392 47.8081ZM211.954 54.0775L210.575 48.9289L205.745 50.2229L207.125 55.3716L211.954 54.0775ZM201.472 93.1975C211.703 82.9662 215.699 68.0537 211.954 54.0775L207.125 55.3716C210.407 67.6223 206.905 80.6937 197.937 89.6619L201.472 93.1975ZM197.232 97.4379L201.472 93.1975L197.937 89.6619L193.696 93.9024L197.232 97.4379ZM158.112 107.92C172.088 111.665 187 107.669 197.232 97.4379L193.696 93.9024C184.728 102.871 171.657 106.373 159.406 103.09L158.112 107.92ZM152.319 106.368L158.112 107.92L159.406 103.09L153.613 101.538L152.319 106.368ZM148.207 105.028C149.544 105.544 150.917 105.992 152.319 106.368L153.613 101.538C152.383 101.209 151.18 100.816 150.008 100.363L148.207 105.028ZM147.34 100.928L50.7224 197.545L54.258 201.081L150.875 104.463L147.34 100.928ZM50.7224 197.545C47.7935 200.474 43.0448 200.474 40.1158 197.545L36.5803 201.081C41.4619 205.962 49.3764 205.962 54.258 201.081L50.7224 197.545ZM40.1158 197.545L32.8339 190.263L29.2984 193.799L36.5803 201.081L40.1158 197.545ZM32.8339 190.263C29.905 187.334 29.905 182.585 32.8339 179.657L29.2984 176.121C24.4169 181.003 24.4169 188.917 29.2984 193.799L32.8339 190.263ZM32.8339 179.657L129.308 83.1824L125.773 79.6469L29.2984 176.121L32.8339 179.657ZM123.681 77.7301C124.105 79.3097 124.62 80.8504 125.22 82.3463L129.86 80.483C129.334 79.172 128.882 77.8213 128.511 76.436L123.681 77.7301ZM122.129 71.9376L123.681 77.7301L128.511 76.436L126.959 70.6435L122.129 71.9376ZM132.612 32.8176C122.38 43.0489 118.384 57.9614 122.129 71.9376L126.959 70.6435C123.676 58.3927 127.179 45.3213 136.147 36.3532L132.612 32.8176ZM136.852 28.5772L132.612 32.8176L136.147 36.3532L140.387 32.1127L136.852 28.5772ZM175.972 18.095C161.996 14.3501 147.083 18.3459 136.852 28.5772L140.387 32.1127C149.356 23.1446 162.427 19.6421 174.678 22.9247L175.972 18.095Z" fill="#219653"/>
<line x1="59.2322" y1="170.232" x2="137.232" y2="92.2322" stroke="#63EBBA" stroke-width="5"/>
</svg>
