<svg width="71" height="39" viewBox="0 0 71 39" fill="none" xmlns="http://www.w3.org/2000/svg">
<g filter="url(#filter0_d)">
<path fill-rule="evenodd" clip-rule="evenodd" d="M43.3049 1.31677C43.8408 0.173188 45.2021 -0.319312 46.3454 0.216743L62.6034 7.83956L62.8003 11.8766L46.5422 21.5321C45.4565 22.1769 44.0538 21.8193 43.4091 20.7333C42.7645 19.6473 43.122 18.2442 44.2078 17.5994L56.7541 10.1482L44.4046 4.35803C43.2613 3.82198 42.7689 2.46036 43.3049 1.31677ZM31.175 1.29133C31.7249 2.42822 31.2494 3.7958 30.1128 4.34591L18.1276 10.1466L30.3117 17.616C31.3882 18.276 31.7261 19.684 31.0662 20.7608C30.4064 21.8376 28.9988 22.1755 27.9222 21.5155L12.1722 11.86L12.3711 7.85168L28.1211 0.228863C29.2577 -0.321246 30.625 0.154436 31.175 1.29133ZM8.28629 0.000542712C9.54897 0.000542712 10.5726 1.0244 10.5726 2.28739V19.5658C10.5726 20.8288 9.54897 21.8526 8.28629 21.8526C7.02361 21.8526 6 20.8288 6 19.5658V2.28739C6 1.0244 7.02361 0.000542712 8.28629 0.000542712ZM37.754 0.000542712C39.0167 0.000542712 40.0403 1.0244 40.0403 2.28739V28.7132C40.0403 29.9761 39.0167 31 37.754 31C36.4913 31 35.4677 29.9761 35.4677 28.7132V2.28739C35.4677 1.0244 36.4913 0.000542712 37.754 0.000542712ZM66.7137 0.000542712C67.9764 0.000542712 69 1.0244 69 2.28739V19.5658C69 20.8288 67.9764 21.8526 66.7137 21.8526C65.451 21.8526 64.4274 20.8288 64.4274 19.5658V2.28739C64.4274 1.0244 65.451 0.000542712 66.7137 0.000542712Z" fill="url(#paint0_linear)"/>
</g>
<defs>
<filter id="filter0_d" x="0" y="0" width="71" height="39" filterUnits="userSpaceOnUse" color-interpolation-filters="sRGB">
<feFlood flood-opacity="0" result="BackgroundImageFix"/>
<feColorMatrix in="SourceAlpha" type="matrix" values="0 0 0 0 0 0 0 0 0 0 0 0 0 0 0 0 0 0 127 0"/>
<feOffset dx="-2" dy="4"/>
<feGaussianBlur stdDeviation="2"/>
<feColorMatrix type="matrix" values="0 0 0 0 0 0 0 0 0 0 0 0 0 0 0 0 0 0 0.1 0"/>
<feBlend mode="normal" in2="BackgroundImageFix" result="effect1_dropShadow"/>
<feBlend mode="normal" in="SourceGraphic" in2="effect1_dropShadow" result="shape"/>
</filter>
<linearGradient id="paint0_linear" x1="37.5" y1="0" x2="37.5" y2="31" gradientUnits="userSpaceOnUse">
<stop stop-color="#6FCF97"/>
<stop offset="1" stop-color="#27AE60"/>
</linearGradient>
</defs>
</svg>
