<svg width="83" height="68" viewBox="0 0 83 68" fill="none" xmlns="http://www.w3.org/2000/svg">
<g clip-path="url(#clip0)">
<path d="M15.0449 56.1016L18.0662 67.8224H15.7868L13.7673 59.3816L9.98528 67.8224H8.06215L4.29892 59.4381L2.23115 67.8304H0L2.98916 56.1016H4.96854L9.04247 65.1774L13.0896 56.1016H15.0449Z" fill="white"/>
<path d="M26.664 60.6328V59.2686H28.8604V67.8224H26.664V66.434C26.0801 67.4269 24.8855 67.9946 23.4311 67.9946C20.3938 67.9946 18.6956 65.842 18.6956 63.3666C18.6956 60.9799 20.3027 59.0614 23.107 59.0614C24.7034 59.0749 26.0292 59.6265 26.664 60.6328ZM21.0393 63.4903C21.0393 65.0644 22.0249 66.4098 23.932 66.4098C25.7748 66.4098 26.7765 65.0967 26.7765 63.5388C26.7765 61.9808 25.7426 60.6489 23.8302 60.6489C21.9901 60.6489 21.0393 61.9781 21.0393 63.4903Z" fill="white"/>
<path d="M33.8155 67.8224H31.6192V59.2686H33.8155V61.1844C34.0654 60.569 34.4898 60.0409 35.036 59.6658C35.5822 59.2908 36.2262 59.0852 36.8877 59.0749C37.3545 59.0682 37.8188 59.1447 38.2591 59.3009L37.7903 60.9153C37.4109 60.814 37.0205 60.7598 36.6279 60.7539C35.0449 60.7539 33.8155 61.9539 33.8155 63.7137V67.8224Z" fill="white"/>
<path d="M39.3572 57.0165C39.3533 56.8612 39.3814 56.7068 39.4399 56.5629C39.4983 56.4191 39.5858 56.289 39.6967 56.1808C39.8077 56.0726 39.9398 55.9887 40.0847 55.9343C40.2295 55.8799 40.384 55.8563 40.5384 55.8649C40.6953 55.8597 40.8516 55.8867 40.9978 55.9442C41.144 56.0017 41.277 56.0884 41.3888 56.1992C41.5005 56.3099 41.5887 56.4424 41.6479 56.5884C41.707 56.7345 41.736 56.8911 41.733 57.0488C41.7365 57.2045 41.7074 57.3593 41.6478 57.503C41.5881 57.6468 41.4992 57.7765 41.3867 57.8837C41.2742 57.9909 41.1406 58.0732 40.9945 58.1255C40.8484 58.1777 40.6931 58.1987 40.5384 58.187C40.3829 58.1937 40.2277 58.1681 40.0824 58.1119C39.9371 58.0557 39.8049 57.97 39.6941 57.8602C39.5833 57.7503 39.4962 57.6187 39.4382 57.4736C39.3802 57.3284 39.3527 57.1728 39.3572 57.0165ZM39.4537 59.274H41.6634V65.5192C41.6634 65.9067 41.7437 66.1838 42.0678 66.1838C42.2092 66.1801 42.3499 66.1639 42.4884 66.1354L42.8258 67.7498C42.3626 67.9319 41.8689 68.0232 41.3714 68.0189C40.45 68.0189 39.4644 67.7498 39.4644 65.6484L39.4537 59.274Z" fill="white"/>
<path d="M51.4773 60.6328V59.2686H53.6736V67.8224H51.4773V66.434C50.8933 67.4269 49.6988 67.9946 48.2444 67.9946C45.207 67.9946 43.5088 65.842 43.5088 63.3666C43.5088 60.9799 45.1159 59.0614 47.9203 59.0614C49.522 59.0749 50.8451 59.6265 51.4773 60.6328ZM45.8525 63.4903C45.8525 65.0644 46.8382 66.4098 48.7452 66.4098C50.588 66.4098 51.5897 65.0967 51.5897 63.5388C51.5897 61.9808 50.5559 60.6489 48.6434 60.6489C46.806 60.6489 45.8525 61.9781 45.8525 63.4903Z" fill="white"/>
<path d="M57.0484 56.1016H62.317C66.7445 56.1016 68.9596 58.5555 68.9274 61.962C68.9596 65.503 66.5168 67.8224 62.7053 67.8224H57.0484V56.1016ZM58.5028 57.1429V66.7999H62.5205C66.0427 66.7999 67.3846 64.4132 67.3846 61.9297C67.3846 59.1232 65.7025 57.1429 62.5205 57.1429H58.5028Z" fill="white"/>
<path d="M77.9082 67.8224H71.2121V56.1016H77.2386C79.5501 56.1016 81.7465 56.5401 81.7143 59.1394C81.7143 60.9718 80.584 61.4749 79.3868 61.6714C81.0849 61.8167 82.1027 62.9037 82.1027 64.6581C82.1268 67.2869 79.8314 67.8224 77.9082 67.8224ZM77.4074 61.2166C79.7189 61.2166 80.2358 60.3233 80.2358 59.1878C80.2358 57.4819 79.2019 57.0917 77.4074 57.0917H72.6103V61.2166H77.4074ZM77.4717 62.2068H72.6103V66.8322H77.6833C79.1055 66.8322 80.6081 66.3613 80.6081 64.5612C80.6081 62.4813 78.8778 62.2068 77.4717 62.2068Z" fill="white"/>
<path d="M82.6438 0.255601C82.432 0.0745519 82.161 -0.0213035 81.8831 -0.0134713C81.1224 -0.0134713 80.1421 0.503148 79.6171 0.793746L79.4055 0.901375C78.5205 1.33218 77.5569 1.57579 76.5744 1.61711C75.5673 1.6494 74.6995 1.70859 73.5692 1.82429C66.873 2.5185 63.8865 7.67393 61.0099 12.6598C59.4456 15.3721 57.8279 18.1758 55.6101 20.3472C55.1497 20.7936 54.6612 21.2097 54.1477 21.5931C51.8522 23.3124 48.9702 24.5259 46.7176 25.3924C44.5561 26.2211 42.2017 26.9664 39.9224 27.6875C37.8385 28.3468 35.8672 28.9683 34.0566 29.6464C33.2396 29.9504 32.5459 30.1845 31.9325 30.389C30.2853 30.9272 29.0934 31.3389 27.3577 32.5416C26.6801 33.0071 25.9998 33.5103 25.5364 33.887C24.1566 34.9923 22.9361 36.2845 21.9098 37.7266C21.026 39.0584 20.0053 40.2931 18.8644 41.4102C18.5001 41.7708 17.8465 41.9484 16.8743 41.9484C15.7306 41.9484 14.3485 41.7116 12.8807 41.4614C11.4129 41.2111 9.81118 40.9232 8.47195 40.9232C7.38182 40.9232 6.5515 41.1008 5.92742 41.4614C5.92742 41.4614 4.88282 42.0749 4.43819 42.8686L4.8721 43.065C5.54537 43.4322 6.16915 43.8843 6.72827 44.4104C7.30727 44.9525 7.95477 45.4157 8.65408 45.7881C8.87925 45.8741 9.08373 46.0071 9.25406 46.1782C9.06925 46.4473 8.8014 46.7944 8.52016 47.1657C6.97469 49.1972 6.07473 50.4807 6.59167 51.1803C6.83914 51.3104 7.11609 51.3734 7.39521 51.3632C10.7674 51.3632 12.5753 50.4834 14.8681 49.3694C15.5297 49.0465 16.2073 48.7129 17.0109 48.3738C18.3501 47.79 19.7911 46.859 21.3178 45.8742C23.3401 44.5692 25.4319 43.2184 27.4568 42.5646C29.1254 42.0534 30.8634 41.8083 32.6075 41.8381C34.7503 41.8381 37.0055 42.126 39.1805 42.4058C40.8036 42.6157 42.4803 42.8309 44.1276 42.944C44.7677 42.9816 45.3596 43.0005 45.9382 43.0005C46.7085 43.0026 47.4784 42.9622 48.2443 42.8794L48.4265 42.8148C49.5836 42.1018 50.1246 40.5707 50.6469 39.0908C50.9844 38.1383 51.2683 37.2827 51.7183 36.7391C51.7452 36.7119 51.7748 36.6876 51.8067 36.6665C51.8278 36.6547 51.8522 36.6504 51.876 36.6543C51.8999 36.6582 51.9217 36.6701 51.9379 36.688C51.9426 36.702 51.9426 36.7171 51.9379 36.7311C51.6701 42.5188 49.3479 46.1917 47.0042 49.4582L45.4132 51.1345C45.4132 51.1345 47.6042 51.1345 48.8524 50.6502C53.4057 49.2833 56.8449 46.2697 59.3465 41.4641C59.9632 40.2307 60.5139 38.9651 60.9965 37.6728C61.0393 37.5652 61.4357 37.3661 61.3956 37.9231C61.3956 38.0872 61.3741 38.2702 61.3607 38.4612C61.3607 38.5742 61.3447 38.6899 61.3393 38.8056C61.2724 39.6128 61.0715 41.3188 61.0715 41.3188L62.4777 40.5627C65.8686 38.4101 68.4828 34.0673 70.4648 27.3108C71.2925 24.4963 71.8951 21.7007 72.4281 19.2387C73.0656 16.2789 73.6147 13.7415 74.2441 12.7567C75.2325 11.2122 76.7404 10.1682 78.2002 9.15383C78.4011 9.0166 78.5993 8.88476 78.7948 8.73946C80.6322 7.44522 82.4563 5.95187 82.8554 3.16697V3.10508C83.1607 1.02784 82.9116 0.51122 82.6438 0.255601Z" fill="white"/>
</g>
<defs>
<clipPath id="clip0">
<rect width="83" height="68" fill="white"/>
</clipPath>
</defs>
</svg>
