<svg width="62" height="61" viewBox="0 0 62 61" fill="none" xmlns="http://www.w3.org/2000/svg">
<path d="M30.4627 0.356934C13.6393 0.356934 0 13.9316 0 30.6777C0 47.4233 13.6393 60.999 30.4627 60.999C47.2861 60.999 60.9249 47.4233 60.9249 30.6777C60.9249 13.9316 47.2855 0.356934 30.4627 0.356934ZM30.4627 57.1057C25.6761 57.1057 21.7954 53.923 21.7954 49.9981H39.13C39.13 53.9224 35.2493 57.1057 30.4627 57.1057ZM44.7783 47.6442H16.1455V42.4764H44.7788V47.6442H44.7783ZM44.6756 39.8164H16.2272C16.1326 39.7078 16.0358 39.6008 15.9444 39.4906C13.0136 35.9483 12.3233 34.099 11.653 32.2145C11.6417 32.1524 15.2069 32.9395 17.7351 33.5056C17.7351 33.5056 19.036 33.8053 20.938 34.1504C19.1118 32.0197 18.0275 29.3111 18.0275 26.5425C18.0275 20.4645 22.7109 15.1532 21.0213 10.8602C22.6657 10.9934 24.4247 14.3147 24.5435 19.5077C26.2917 17.103 27.0233 12.7116 27.0233 10.019C27.0233 7.23121 28.8688 3.99286 30.7148 3.88209C29.0693 6.58161 31.1411 8.89586 32.9828 14.6368C33.6736 16.7932 33.5855 20.4222 34.1187 22.7236C34.2956 17.9437 35.1213 10.9693 38.1677 8.56143C36.8238 11.5938 38.3666 15.3881 39.4219 17.2122C41.1244 20.1552 42.1565 22.3849 42.1565 26.6019C42.1565 29.4293 41.1077 32.0914 39.3386 34.1723C41.3502 33.7967 42.7393 33.458 42.7393 33.458L49.2719 32.1893C49.2724 32.1888 48.323 36.0746 44.6756 39.8164Z" fill="#E6522C"/>
</svg>
