<svg width="47" height="47" viewBox="0 0 47 47" fill="none" xmlns="http://www.w3.org/2000/svg">
<path d="M22.8805 0.00038363C20.9708 0.00927181 19.1471 0.17241 17.5425 0.456826C12.8154 1.29334 11.9571 3.04424 11.9571 6.27321V10.5377H23.1278V11.9592H11.9571H7.76484C4.51832 11.9592 1.67557 13.9138 0.786392 17.6321C-0.239261 21.8942 -0.284754 24.5538 0.786392 29.004C1.58045 32.3166 3.47676 34.677 6.72328 34.677H10.564V29.5648C10.564 25.8716 13.7542 22.6138 17.5425 22.6138H28.7002C31.8061 22.6138 34.2855 20.0523 34.2855 16.9279V6.27321C34.2855 3.24083 31.7317 0.962918 28.7002 0.456826C26.7812 0.136857 24.7901 -0.00850455 22.8805 0.00038363ZM16.8394 3.43022C17.9933 3.43022 18.9356 4.38949 18.9356 5.56898C18.9356 6.74429 17.9933 7.6947 16.8394 7.6947C15.6814 7.6947 14.7433 6.74429 14.7433 5.56898C14.7433 4.38949 15.6814 3.43022 16.8394 3.43022Z" fill="url(#paint0_linear)"/>
<path d="M35.6786 11.9591V16.9278C35.6786 20.78 32.4182 24.0222 28.7002 24.0222H17.5425C14.4862 24.0222 11.9571 26.6424 11.9571 29.7082V40.3629C11.9571 43.3952 14.5896 45.1789 17.5425 46.0488C21.0785 47.0903 24.4694 47.2785 28.7002 46.0488C31.5125 45.2332 34.2856 43.5918 34.2856 40.3629V36.0984H23.1278V34.6769H34.2856H39.8709C43.1174 34.6769 44.3272 32.4086 45.4563 29.004C46.6225 25.499 46.5729 22.1283 45.4563 17.632C44.6539 14.3947 43.1216 11.9591 39.8709 11.9591H35.6786ZM29.4032 38.9414C30.5612 38.9414 31.4994 39.8918 31.4994 41.0671C31.4994 42.2466 30.5612 43.2058 29.4032 43.2058C28.2494 43.2058 27.3071 42.2466 27.3071 41.0671C27.3071 39.8918 28.2494 38.9414 29.4032 38.9414Z" fill="url(#paint1_linear)"/>
<defs>
<linearGradient id="paint0_linear" x1="3.64597e-08" y1="3.17243e-08" x2="25.7946" y2="21.944" gradientUnits="userSpaceOnUse">
<stop stop-color="#5A9FD4"/>
<stop offset="1" stop-color="#306998"/>
</linearGradient>
<linearGradient id="paint1_linear" x1="29.1348" y1="40.7086" x2="19.8732" y2="27.7519" gradientUnits="userSpaceOnUse">
<stop stop-color="#FFD43B"/>
<stop offset="1" stop-color="#FFE873"/>
</linearGradient>
</defs>
</svg>
