<svg width="144" height="32" viewBox="0 0 144 32" fill="none" xmlns="http://www.w3.org/2000/svg">
<path d="M49.7404 22.7464C50.3362 21.4122 51.585 20.5045 53.2312 20.5045C54.8774 20.5045 56.0979 21.2703 56.609 22.7464H49.7404ZM60.5254 24.4491C60.5254 20.3618 57.545 17.0984 53.2029 17.0984C49.1164 17.0984 45.824 20.3908 45.824 24.4773C45.824 28.5646 48.8891 31.8562 53.3166 31.8562C56.3832 31.8562 58.5886 30.3771 59.8289 28.2572L56.7456 26.418C56.091 27.6736 54.8354 28.4509 53.3448 28.4509C51.302 28.4509 50.025 27.4287 49.5703 25.868H60.5254V24.4491ZM139.682 24.4491C139.682 22.349 138.149 20.6463 136.05 20.6463C133.893 20.6463 132.247 22.2636 132.247 24.4491C132.247 26.6346 133.893 28.2808 136.05 28.2808C138.149 28.2808 139.682 26.5492 139.682 24.4491ZM128.444 24.4773C128.444 19.4548 132.133 17.0984 135.34 17.0984C137.184 17.0984 138.632 17.7796 139.569 18.7728V10.8546H143.457V31.5725H139.569V29.9835C138.632 31.0903 137.128 31.8562 135.283 31.8562C132.275 31.8562 128.444 29.4724 128.444 24.4773ZM125.587 15.2226C126.872 15.2226 127.913 14.1813 127.913 12.8967C127.913 11.6121 126.872 10.5708 125.587 10.5708C124.303 10.5708 123.262 11.6121 123.262 12.8967C123.262 14.1813 124.303 15.2226 125.587 15.2226ZM123.643 17.3822H127.531V31.5725H123.643V21.1574L122.232 21.1567L123.643 17.3822ZM113.285 17.3822H117.145V19.7096C117.855 18.2343 119.132 17.3822 121.062 17.3822H122.623L121.214 21.1567H120.153C118.082 21.1567 117.174 22.2353 117.174 24.8748V31.5725H113.285V17.3822ZM91.4119 21.2139C91.4119 15.3111 95.8684 10.5708 101.998 10.5708C105.064 10.5708 107.643 11.6754 109.51 13.4345C110.27 14.1508 110.912 14.9754 111.42 15.8779L107.959 17.9779C106.681 15.6223 104.723 14.4025 102.027 14.4025C98.2523 14.4025 95.3291 17.4958 95.3291 21.2139C95.3291 25.0166 98.1951 28.0253 102.169 28.0253C105.177 28.0253 107.305 26.3226 108.043 23.6824H101.544V19.9087H112.3V21.4977C112.3 27.0603 108.327 31.8562 102.169 31.8562C95.6975 31.8562 91.4119 26.9466 91.4119 21.2139ZM86.725 24.4491C86.725 22.349 85.1933 20.6463 83.0932 20.6463C80.9359 20.6463 79.2897 22.2636 79.2897 24.4491C79.2897 26.6346 80.9359 28.2808 83.0932 28.2808C85.1933 28.2808 86.725 26.5492 86.725 24.4491ZM75.4869 24.4773C75.4869 19.4548 79.176 17.0984 82.383 17.0984C84.2275 17.0984 85.6754 17.7796 86.6121 18.7728V10.8546H90.5003V31.5725H86.6121V29.9835C85.6754 31.0903 84.1711 31.8562 82.3265 31.8562C79.3179 31.8562 75.4869 29.4724 75.4869 24.4773ZM61.434 17.3822H65.2939V18.9719C66.2024 17.8078 67.5931 17.0984 69.2111 17.0984C72.5592 17.0984 74.5746 19.2557 74.5746 22.9165V31.5725H70.63V23.4276C70.63 21.5259 69.7496 20.419 68.0188 20.419C66.5427 20.419 65.3229 21.4405 65.3229 23.8243V31.5725H61.434V17.3822ZM29.6877 28.1389L33.2921 25.3004C34.3143 27.0603 35.9316 28.0817 37.7761 28.0817C39.7915 28.0817 40.8702 26.7765 40.8702 25.3569C40.8702 23.6542 38.7983 23.1156 36.5846 22.4337C33.8032 21.5823 30.7099 20.5045 30.7099 16.5308C30.7099 13.2102 33.6049 10.5708 37.606 10.5708C40.9838 10.5708 42.9138 11.8478 44.5882 13.5794L41.3241 16.0487C40.4727 14.7717 39.2522 14.0905 37.6342 14.0905C35.7897 14.0905 34.7965 15.0837 34.7965 16.389C34.7965 17.9779 36.7829 18.518 38.9966 19.2557C41.8069 20.1635 44.9849 21.4122 44.9849 25.3858C44.9849 28.6775 42.3745 31.8562 37.8051 31.8562C34.0588 31.8562 31.5613 30.2672 29.6877 28.1389Z" fill="white"/>
<path d="M33.5972 1.70663V6.53691H32.4797V1.70663H30.7572V0.740112H35.3251L35.3235 1.70663H33.5972Z" fill="white"/>
<path d="M43.4715 6.53703H42.4127L41.1273 2.3193L39.8419 6.53703H38.7915L37.1712 0.712769L38.3437 0.728788L39.4216 4.83209L40.6314 0.740231H41.749L42.9588 4.83209L44.0177 0.740231H45.1352L43.4715 6.53703Z" fill="white"/>
<path d="M47.339 0.740112H48.4565V6.53691H47.339V0.740112Z" fill="white"/>
<path d="M51.0457 6.53691V0.740112H52.1632V5.55437H54.0955L54.1054 6.53691H51.0457Z" fill="white"/>
<path d="M56.4244 0.740112H57.5419V6.53691H56.4244V0.740112Z" fill="white"/>
<path d="M62.6263 1.5549C61.6346 1.5549 61.0381 2.37037 61.0381 3.63897C61.0381 4.90757 61.6346 5.72228 62.6263 5.72228C63.6264 5.72228 64.2229 4.90757 64.2229 3.63897C64.2229 2.37037 63.618 1.5549 62.6263 1.5549ZM62.6179 6.64683C60.9709 6.64683 59.9045 5.43698 59.9045 3.64736C59.9045 1.84935 60.9793 0.631104 62.6347 0.631104C64.2984 0.631104 65.3481 1.8402 65.3481 3.63058C65.3481 5.41943 64.2816 6.64683 62.6179 6.64683Z" fill="white"/>
<path d="M8.46332 31.4635H16.75V23.1768H8.46332V31.4635Z" fill="#A5E2F1"/>
<path d="M8.46333 14.89H0.176636V23.1767H8.46333V14.89Z" fill="#A5E2F1"/>
<path d="M0.176636 31.4635H8.46333V23.1768H0.176636V31.4635Z" fill="#4879C6"/>
<path d="M25.0367 14.89H16.75V23.1767H25.0367V14.89Z" fill="#31B7E6"/>
<path d="M16.75 6.60339H8.46332V14.8901H16.75V6.60339Z" fill="#31B7E6"/>
<path d="M8.46332 23.1767H16.75V14.89H8.46332V23.1767Z" fill="#459EDD"/>
<path d="M25.0367 6.60339H16.75V14.8901H25.0367V6.60339Z" fill="#4879C6"/>
</svg>
