<svg width="188" height="39" viewBox="0 0 188 39" fill="none" xmlns="http://www.w3.org/2000/svg">
<path fill-rule="evenodd" clip-rule="evenodd" d="M32.6869 8.96269L32.6887 8.95903C29.6752 5.34666 25.145 3.04688 20.0775 3.04688C13.6289 3.04688 8.05095 6.77138 5.36237 12.1875H26.7737C28.3099 12.1875 29.8054 11.6573 30.9809 10.6665C31.5917 10.1516 32.163 9.59095 32.6869 8.96269Z" fill="#FEC514"/>
<path fill-rule="evenodd" clip-rule="evenodd" d="M3.65051 19.5004C3.65051 20.9763 3.84764 22.4053 4.21147 23.766H24.3366C26.6887 23.766 28.5955 21.8562 28.5955 19.5004C28.5955 17.1445 26.6887 15.2347 24.3366 15.2347H4.21147C3.84764 16.5955 3.65051 18.0245 3.65051 19.5004Z" fill="white"/>
<path fill-rule="evenodd" clip-rule="evenodd" d="M32.6869 30.0379L32.6887 30.0416C29.6752 33.654 25.145 35.9537 20.0775 35.9537C13.6289 35.9537 8.05095 32.2292 5.36237 26.8131H26.7737C28.3099 26.8131 29.8054 27.3433 30.9809 28.3341C31.5917 28.849 32.163 29.4097 32.6869 30.0379Z" fill="#00BFB3"/>
<path d="M56.5072 28.2699V25.2793H48.2413V21.0776H54.4834V18.0869H48.2413V13.9594H56.5072V10.9688H45.0226V28.2699H56.5072ZM62.3593 28.2699V10.9688H59.2869V28.2699H62.3593ZM68.8452 28.6159C70.2351 28.6159 71.625 27.998 72.1858 27.1082H72.2833V28.2699H75.1849V20.8057C75.1849 17.7903 73.4537 16.1097 70.357 16.1097C67.6992 16.1097 65.7973 17.3455 65.1146 19.4957L68.1869 19.7429C68.4551 19.1003 69.1135 18.5813 70.162 18.5813C71.4055 18.5813 72.137 19.3227 72.137 20.608V21.473C71.7469 21.2506 70.7472 21.0281 69.7474 21.0281C66.6507 21.0281 64.7732 22.4864 64.7732 24.9332C64.7732 27.0835 66.4557 28.6159 68.8452 28.6159ZM69.7231 26.1938C68.5526 26.1938 67.8699 25.6006 67.8699 24.6861C67.8699 23.7716 68.6746 23.1784 70.0888 23.1784C70.991 23.1784 71.8444 23.4009 72.1858 23.6974V24.4636C72.1858 25.3781 71.0398 26.1938 69.7231 26.1938ZM82.0854 28.6406C84.9383 28.6406 86.8646 27.0835 86.8646 24.6861C86.8646 19.9406 80.6468 21.9673 80.6468 19.644C80.6468 18.9767 81.1833 18.4577 82.1342 18.4577C83.0608 18.4577 83.7923 18.9767 83.9386 19.7429L86.7914 19.125C86.3038 17.3207 84.4506 16.1097 82.0611 16.1097C79.4033 16.1097 77.5989 17.6173 77.5989 19.8665C77.5989 24.6366 83.8167 22.6099 83.8167 24.9085C83.8167 25.7736 83.2071 26.342 82.1586 26.342C81.0857 26.342 80.1835 25.7489 79.9397 24.8344L77.1112 25.3781C77.7452 27.4543 79.574 28.6406 82.0854 28.6406ZM93.9114 28.517C94.7892 28.517 95.4963 28.3688 95.9108 28.1957L95.5939 25.7241C95.3256 25.8477 94.9843 25.9466 94.521 25.9466C93.375 25.9466 92.7898 25.4523 92.7898 23.8705V19.125H95.7889V16.4804H92.7898V12.7483L89.7175 13.3662V16.4804H87.718V19.125H89.7175V24.3648C89.7175 27.479 91.4731 28.517 93.9114 28.517ZM100.641 13.9594V10.9688H97.5689V13.9594H100.641ZM100.641 28.2699V16.4804H97.5689V28.2699H100.641ZM108.785 28.6406C111.394 28.6406 113.321 27.2812 114.028 24.8344L111.15 24.0929C110.809 25.2051 109.98 25.9219 108.688 25.9219C106.859 25.9219 105.835 24.4389 105.835 22.3875C105.835 20.3114 106.859 18.8531 108.688 18.8531C109.98 18.8531 110.858 19.5205 111.199 20.6574L114.174 20.2372C113.516 17.5432 111.614 16.1097 108.615 16.1097C105.372 16.1097 102.763 18.5071 102.763 22.3628C102.763 26.0455 105.177 28.6406 108.785 28.6406ZM120.245 28.6406C123.098 28.6406 125.025 27.0835 125.025 24.6861C125.025 19.9406 118.807 21.9673 118.807 19.644C118.807 18.9767 119.343 18.4577 120.294 18.4577C121.221 18.4577 121.952 18.9767 122.099 19.7429L124.951 19.125C124.464 17.3207 122.611 16.1097 120.221 16.1097C117.563 16.1097 115.759 17.6173 115.759 19.8665C115.759 24.6366 121.977 22.6099 121.977 24.9085C121.977 25.7736 121.367 26.342 120.319 26.342C119.246 26.342 118.344 25.7489 118.1 24.8344L115.271 25.3781C115.905 27.4543 117.734 28.6406 120.245 28.6406ZM132.559 28.6406C134.949 28.6406 136.68 27.5284 137.655 25.3534L135.095 24.6119C134.607 25.5511 133.73 26.0949 132.584 26.0949C130.974 26.0949 129.804 24.958 129.511 23.2526H138.119V22.5111C138.094 18.4577 135.558 16.1097 132.267 16.1097C128.853 16.1097 126.39 18.8284 126.39 22.4122C126.39 26.0207 128.95 28.6406 132.559 28.6406ZM134.924 21.127H129.536C129.853 19.3722 130.877 18.5071 132.315 18.5071C133.681 18.5071 134.827 19.3474 134.924 21.127ZM143.849 28.6159C145.239 28.6159 146.628 27.998 147.189 27.1082H147.287V28.2699H150.188V20.8057C150.188 17.7903 148.457 16.1097 145.36 16.1097C142.703 16.1097 140.801 17.3455 140.118 19.4957L143.19 19.7429C143.459 19.1003 144.117 18.5813 145.165 18.5813C146.409 18.5813 147.14 19.3227 147.14 20.608V21.473C146.75 21.2506 145.751 21.0281 144.751 21.0281C141.654 21.0281 139.777 22.4864 139.777 24.9332C139.777 27.0835 141.459 28.6159 143.849 28.6159ZM144.726 26.1938C143.556 26.1938 142.873 25.6006 142.873 24.6861C142.873 23.7716 143.678 23.1784 145.092 23.1784C145.994 23.1784 146.848 23.4009 147.189 23.6974V24.4636C147.189 25.3781 146.043 26.1938 144.726 26.1938ZM155.87 28.2699V22.9807C155.87 20.2125 157.138 19.298 158.82 19.298C159.113 19.298 159.454 19.3474 159.674 19.4463V16.4557C159.503 16.3568 159.186 16.2827 158.796 16.2827C157.455 16.2827 156.284 17.0489 155.699 18.3835H155.65V16.4804H152.797V28.2699H155.87ZM166.647 28.6406C169.256 28.6406 171.182 27.2812 171.89 24.8344L169.012 24.0929C168.671 25.2051 167.842 25.9219 166.55 25.9219C164.721 25.9219 163.697 24.4389 163.697 22.3875C163.697 20.3114 164.721 18.8531 166.55 18.8531C167.842 18.8531 168.72 19.5205 169.061 20.6574L172.036 20.2372C171.378 17.5432 169.476 16.1097 166.476 16.1097C163.233 16.1097 160.624 18.5071 160.624 22.3628C160.624 26.0455 163.038 28.6406 166.647 28.6406ZM176.888 28.2699V21.4977C176.888 19.9159 177.985 18.8531 179.327 18.8531C180.57 18.8531 181.277 19.6687 181.277 21.3V28.2699H184.35V20.7315C184.35 17.8398 182.789 16.1097 180.277 16.1097C178.814 16.1097 177.498 16.9006 176.888 17.7903V10.9688H173.816V28.2699H176.888Z" fill="white"/>
</svg>
