<svg width="58" height="80" viewBox="0 0 58 80" fill="none" xmlns="http://www.w3.org/2000/svg">
<g clip-path="url(#clip0)">
<path fill-rule="evenodd" clip-rule="evenodd" d="M57.0113 38.5691C57.0113 54.4117 44.4441 67.2548 28.9416 67.2548C13.4394 67.2548 0.872162 54.4117 0.872162 38.5691C0.872162 22.7262 13.4394 9.8829 28.9416 9.8829C44.4441 9.8829 57.0113 22.7262 57.0113 38.5691Z" fill="#D33833"/>
<path d="M2.01602 45.6737C2.01602 45.6737 -0.0160276 15.7593 27.5726 14.9045L25.6479 11.6993L10.6775 16.7208L6.40016 21.6352L2.65761 28.7936L0.518799 37.1269L1.16039 42.6824" fill="#EF3D3A"/>
<path d="M9.71638 19.0003C4.79151 24.0349 1.74396 30.9862 1.74396 38.6763C1.74396 46.3647 4.79151 53.3169 9.71638 58.3506C14.6436 63.3843 21.4341 66.4904 28.9412 66.4904C36.4486 66.4904 43.2395 63.3843 48.1663 58.3506C53.0909 53.3169 56.1391 46.3647 56.1391 38.6763C56.1391 30.9862 53.0909 24.0349 48.1663 19.0003C43.2395 13.9676 36.4486 10.8615 28.9412 10.8609C21.4341 10.8615 14.6436 13.9676 9.71638 19.0003ZM8.46976 59.5683C3.23578 54.2203 0 46.8292 0 38.6763C0 30.5221 3.23578 23.1317 8.46976 17.7833C13.7025 12.434 20.946 9.11826 28.9412 9.11922C36.9365 9.11826 44.1807 12.434 49.4126 17.7833C54.647 23.1317 57.8832 30.5228 57.8826 38.6763C57.8832 46.8292 54.647 54.2203 49.4126 59.5683C44.1807 64.9174 36.9365 68.2327 28.9412 68.2327C20.946 68.2327 13.7025 64.9174 8.46976 59.5683Z" fill="#231F20"/>
<path fill-rule="evenodd" clip-rule="evenodd" d="M40.7575 38.7282L36.48 39.3692L30.7056 40.0102L26.9628 40.1169L23.3273 40.0102L20.5469 39.1554L18.0874 36.4846L16.1626 31.0358L15.7349 29.8605L13.1685 29.006L11.6715 26.5487L10.6022 23.023L11.7786 19.9246L14.5586 18.9631L16.8042 20.0317L17.8737 22.382L19.1569 22.1682L19.5845 21.6342L19.1569 19.1769L19.0498 16.0785L19.6914 11.8051L19.6663 9.36405L21.6161 6.24963L25.038 3.79226L31.0264 1.22815L37.656 2.18969L43.4304 6.35636L46.1039 10.6298L47.8147 13.7282L48.2423 21.4205L46.9591 28.0445L44.6067 33.9205L42.3611 37.0189" fill="#F0D6B7"/>
<path fill-rule="evenodd" clip-rule="evenodd" d="M37.1216 57.2109L21.8301 57.8519V60.416L23.1133 69.3904L22.4717 70.1384L11.7786 66.5057L11.0299 65.2237L9.9606 53.1512L7.50151 45.8862L6.96667 44.1769L15.521 38.3009L18.1945 37.2323L20.5469 40.1169L22.5786 41.9333L24.9313 42.6811L26.0004 43.0016L27.2836 48.557L28.246 49.7323L30.7056 48.8775L28.9945 52.1897L38.2976 56.5698L37.1216 57.2109Z" fill="#335061"/>
<path fill-rule="evenodd" clip-rule="evenodd" d="M11.7786 19.9246L14.5586 18.9631L16.8042 20.0316L17.8738 22.382L19.1569 22.1682L19.4777 20.8861L18.8361 18.4291L19.4777 12.5528L18.9429 9.34766L20.8677 7.10408L25.038 3.79221L23.8617 2.18965L17.9805 5.07426L15.521 6.99734L14.131 9.98869L11.9923 12.8733L11.3507 16.2922L11.7786 19.9246Z" fill="#6D6B6D"/>
<path fill-rule="evenodd" clip-rule="evenodd" d="M16.1626 9.88204C16.1626 9.88204 17.7666 5.92916 24.1825 4.00608C30.5985 2.08301 24.5033 2.61698 24.5033 2.61698L17.553 5.28813L14.8794 7.95896L13.7034 10.0958L16.1626 9.88204Z" fill="#DCD9D8"/>
<path fill-rule="evenodd" clip-rule="evenodd" d="M12.9547 19.1769C12.9547 19.1769 10.7091 11.6981 19.2637 10.6298L18.9429 9.34776L13.0618 10.7369L11.3507 16.2923L11.7786 19.9247L12.9547 19.1769Z" fill="#DCD9D8"/>
<path fill-rule="evenodd" clip-rule="evenodd" d="M16.3765 29.1128L17.7766 27.7574C17.7766 27.7574 18.4086 27.8308 18.5153 28.5785C18.6221 29.3266 18.9429 36.0574 23.5409 39.6901C23.9603 40.0215 20.1193 39.1554 20.1193 39.1554L16.6973 33.8138" fill="#F7E4CD"/>
<path fill-rule="evenodd" clip-rule="evenodd" d="M36.0527 27.083C36.0527 27.083 36.302 23.8445 37.1749 24.0936C38.0478 24.3426 38.0478 25.2147 38.0478 25.2147C38.0478 25.2147 35.9279 26.5849 36.0527 27.083Z" fill="#F7E4CD"/>
<path d="M44.9275 15.224C44.9275 15.224 43.1651 15.5958 43.0028 17.1471C42.8404 18.6987 44.9275 17.4676 45.2483 17.3608" fill="#F7E4CD"/>
<path d="M31.9888 15.331C31.9888 15.331 29.6361 15.6515 29.6361 17.1471C29.6361 18.6429 32.3097 18.5362 33.0581 17.8951" fill="#F7E4CD"/>
<path fill-rule="evenodd" clip-rule="evenodd" d="M17.4458 22.2753C17.4458 22.2753 13.3822 19.8179 12.9546 22.1686C12.527 24.5189 11.5643 26.2285 13.5962 28.6855L12.2062 28.2583L10.923 24.9464L10.4954 21.7413L12.9546 19.1769L15.7349 19.3907L17.3389 20.6727L17.4458 22.2753Z" fill="#F7E4CD"/>
<path fill-rule="evenodd" clip-rule="evenodd" d="M19.3706 15.5446C19.3706 15.5446 21.1885 6.14295 30.3848 4.32661C37.956 2.83141 41.9332 4.64712 43.4304 6.35641C43.4304 6.35641 36.6937 -1.65609 30.2777 0.800965C23.8618 3.25834 19.157 7.74552 19.2637 10.6298C19.4458 15.5426 19.3706 15.5446 19.3706 15.5446Z" fill="#F7E4CD"/>
<path fill-rule="evenodd" clip-rule="evenodd" d="M44.1792 7.42468C44.1792 7.42468 41.0783 7.31795 40.9712 10.0958C40.9712 10.0958 40.9709 10.5231 41.1848 10.9503C41.1848 10.9503 43.6447 8.17243 45.1415 9.66827" fill="#F7E4CD"/>
<path fill-rule="evenodd" clip-rule="evenodd" d="M30.6004 11.2397C30.6004 11.2397 30.0665 6.97596 26.4281 9.45481C24.0757 11.0574 24.2897 13.301 24.7173 13.7282C25.1449 14.1558 25.0287 15.0163 25.3542 14.4256C25.6796 13.8349 25.5725 11.9119 26.7489 11.3779C27.9252 10.8436 29.8535 10.2468 30.6004 11.2397Z" fill="#F7E4CD"/>
<path fill-rule="evenodd" clip-rule="evenodd" d="M20.5469 40.1169L10.4954 44.6041C10.4954 44.6041 14.6658 61.164 12.527 66.2922L11.0299 65.7583L10.923 59.4547L8.1431 47.489L6.96667 44.1769L17.4458 37.1259L20.5469 40.1169Z" fill="#49728B"/>
<path fill-rule="evenodd" clip-rule="evenodd" d="M21.5805 49.2763L23.0065 51.0147V57.4249H21.2954C21.2954 57.4249 21.0817 52.9378 21.0817 52.4034C21.0817 51.8692 21.2954 49.9461 21.2954 49.9461" fill="#49728B"/>
<path fill-rule="evenodd" clip-rule="evenodd" d="M21.6161 58.3865L16.8042 58.5999L18.1945 59.5615L21.6161 60.0957" fill="#49728B"/>
<path fill-rule="evenodd" clip-rule="evenodd" d="M38.084 57.3179L42.0404 57.2111L43.0028 67.0404L38.9392 67.5743L38.084 57.3179Z" fill="#335061"/>
<path fill-rule="evenodd" clip-rule="evenodd" d="M39.1532 57.3179L45.1415 56.9974C45.1415 56.9974 47.6007 50.8008 47.6007 50.4803C47.6007 50.1598 49.7395 41.506 49.7395 41.506L44.9275 36.4848L43.9651 35.63L41.3988 38.1941V48.13L39.1532 57.3179Z" fill="#335061"/>
<path fill-rule="evenodd" clip-rule="evenodd" d="M41.8264 56.5701L38.084 57.3179L38.6184 60.3096C40.0084 60.9506 42.3612 59.241 42.3612 59.241" fill="#49728B"/>
<path fill-rule="evenodd" clip-rule="evenodd" d="M41.9335 37.8736L49.4187 43.4291L49.6326 40.865L43.9651 35.63L41.9335 37.8736Z" fill="#49728B"/>
<path fill-rule="evenodd" clip-rule="evenodd" d="M25.3271 78.366L23.1132 69.3904L22.0121 62.7677L21.83 57.8519L31.8501 57.3189L38.084 57.3179L37.5171 68.5369L38.4795 77.1907L38.3727 78.7933L30.2461 79.4343L25.3271 78.366Z" fill="white"/>
<path fill-rule="evenodd" clip-rule="evenodd" d="M36.6937 57.2112C36.6937 57.2112 36.1592 68.3225 37.7632 76.2282C37.7632 76.2282 34.5552 78.2584 29.85 78.7924L38.8324 78.4718L39.9016 77.8308L38.6184 60.3097L38.2976 56.5699" fill="#DCD9D8"/>
<path fill-rule="evenodd" clip-rule="evenodd" d="M43.185 66.1865L47.3553 65.0113L55.2681 64.584L56.4445 60.9516L54.3057 54.6481L51.8465 54.3275L48.4245 55.3959L45.1415 56.9974L43.3986 56.6779L42.0404 57.2111" fill="white"/>
<path fill-rule="evenodd" clip-rule="evenodd" d="M43.1096 64.0486C43.1096 64.0486 45.8896 62.7669 46.3176 62.8736L45.1415 56.9974L46.5315 56.4634C46.5315 56.4634 47.4939 62.0188 47.4939 62.6598C47.4939 62.6598 53.4819 62.9803 54.0167 62.9803C54.0167 62.9803 55.2999 60.523 54.9791 57.9589L56.1554 61.3777L56.2622 63.3008L54.5514 65.8649L52.6267 66.2922L49.4187 66.1854L48.3495 64.7967L44.6067 65.3307L43.4304 65.7583" fill="#DCD9D8"/>
<path d="M38.9075 56.4644L36.5551 50.4813L34.0956 46.9557C34.0956 46.9557 34.63 45.4598 35.3787 45.4598C36.1275 45.4598 37.8383 45.4598 37.8383 45.4598L40.1907 46.3147L39.977 50.2676L38.9075 56.4644Z" fill="white"/>
<path fill-rule="evenodd" clip-rule="evenodd" d="M39.3672 54.4334C39.3672 54.4334 36.3729 48.6644 36.3729 47.8096C36.3729 47.8096 36.9073 46.5276 37.656 46.8481C38.4048 47.1686 40.0088 48.0231 40.0088 48.0231V45.9933L36.3729 45.2452L33.9136 45.5657L38.084 55.3949L38.9392 55.502" fill="#DCD9D8"/>
<path d="M26.2896 40.3319L23.3273 40.0101L20.5469 39.1553V40.1169L21.9054 41.6137L26.1826 43.5367" fill="white"/>
<path fill-rule="evenodd" clip-rule="evenodd" d="M21.5097 40.6522C21.5097 40.6522 24.8248 42.0413 25.8941 41.7208L26.0004 43.0016L23.0069 42.3618L21.1889 41.0798L21.5097 40.6522Z" fill="#DCD9D8"/>
<path fill-rule="evenodd" clip-rule="evenodd" d="M43.1734 45.8237C41.359 45.7705 39.7197 45.5551 38.2845 45.1506C38.382 44.5628 38.1995 43.9859 38.3461 43.5625C38.7461 43.2747 39.4166 43.2792 40.0213 43.2115C39.4984 42.9548 38.7638 42.8532 38.1603 43.0016C38.1462 42.5936 37.963 42.3407 37.8521 42.0215C38.8722 41.6577 41.2804 39.2727 42.6351 40.0625C43.2806 40.4381 43.5549 42.5837 43.6049 43.6269C43.6466 44.4923 43.5263 45.3654 43.1734 45.8237Z" fill="#D33833"/>
<path d="M43.1734 45.8237C41.359 45.7705 39.7197 45.5551 38.2845 45.1506C38.382 44.5628 38.1995 43.9859 38.3461 43.5625C38.7461 43.2747 39.4166 43.2792 40.0213 43.2115C39.4984 42.9548 38.7638 42.8532 38.1603 43.0016C38.1462 42.5936 37.963 42.3407 37.8521 42.0215C38.8722 41.6577 41.2804 39.2727 42.6351 40.0625C43.2806 40.4381 43.5549 42.5837 43.6049 43.6269C43.6466 44.4923 43.5263 45.3654 43.1734 45.8237Z" stroke="#D33833" stroke-width="2.5"/>
<path fill-rule="evenodd" clip-rule="evenodd" d="M34.4969 42.8602C34.492 42.9974 34.4863 43.1355 34.4808 43.274C33.9143 43.6458 32.9997 43.6413 32.378 43.9538C33.2945 43.9939 34.016 44.2144 34.6402 44.5253C34.6265 44.8708 34.6133 45.216 34.5998 45.5615C33.5614 46.2718 32.6128 47.3295 31.3902 47.9955C30.8121 48.3105 28.7833 49.1211 28.1683 48.9778C27.8203 48.8971 27.789 48.4656 27.6499 48.059C27.3536 47.1881 26.6712 45.8019 26.6117 44.491C26.5359 42.8352 26.3686 40.0602 28.1545 40.4013C29.5954 40.6759 31.2711 41.3391 32.3867 41.948C33.0683 42.3205 33.4626 42.7807 34.4969 42.8602Z" fill="#D33833"/>
<path d="M34.4969 42.8602C34.492 42.9974 34.4863 43.1355 34.4808 43.274C33.9143 43.6458 32.9997 43.6413 32.378 43.9538C33.2945 43.9939 34.016 44.2144 34.6402 44.5253C34.6265 44.8708 34.6133 45.216 34.5998 45.5615C33.5614 46.2718 32.6128 47.3295 31.3902 47.9955C30.8121 48.3105 28.7833 49.1211 28.1683 48.9778C27.8203 48.8971 27.789 48.4656 27.6499 48.059C27.3536 47.1881 26.6712 45.8019 26.6117 44.491C26.5359 42.8352 26.3686 40.0602 28.1545 40.4013C29.5954 40.6759 31.2711 41.3391 32.3867 41.948C33.0683 42.3205 33.4626 42.7807 34.4969 42.8602V42.8602Z" stroke="#D33833" stroke-width="2.5"/>
<path fill-rule="evenodd" clip-rule="evenodd" d="M35.5282 44.8358C35.3697 43.9339 35.1866 43.6765 35.2575 42.8897C37.665 41.2858 38.117 45.6445 35.5282 44.8358Z" fill="#D33833"/>
<path d="M35.5282 44.8358C35.3697 43.9339 35.1866 43.6765 35.2575 42.8897C37.665 41.2858 38.117 45.6445 35.5282 44.8358Z" stroke="#D33833" stroke-width="2.5"/>
<path fill-rule="evenodd" clip-rule="evenodd" d="M39.0143 45.5669C39.0143 45.5669 38.2656 44.4983 38.8003 44.1778C39.3351 43.8573 39.8699 44.1781 40.1907 43.6438C40.5115 43.1095 40.1907 42.789 40.2975 42.148C40.4043 41.507 40.9394 41.3999 41.4739 41.2932C42.0083 41.1864 43.5058 40.9727 43.7194 41.507L43.0778 39.5839L41.7947 39.1566L37.7311 41.507L37.5172 42.6823V45.0326" fill="#EF3D3A"/>
<path fill-rule="evenodd" clip-rule="evenodd" d="M27.7865 49.0927C27.6581 47.4253 27.5221 45.7602 27.3709 44.0945C27.1445 41.6074 27.9688 42.0413 30.1267 42.0413C30.4563 42.0413 32.156 42.434 32.2776 42.6824C32.8608 43.8724 31.3024 43.608 32.9493 44.5054C34.3397 45.2628 36.7957 44.0455 36.234 42.3618C35.9196 41.9875 34.596 42.2452 34.1215 41.9993C33.2862 41.5667 32.4508 41.134 31.6154 40.7013C30.5525 40.1503 28.096 39.3471 26.9628 40.117C24.0916 42.0679 27.1441 46.9426 28.1683 48.9778" fill="#EF3D3A"/>
<path fill-rule="evenodd" clip-rule="evenodd" d="M30.6004 11.2398C27.6859 10.5616 26.2377 12.4584 25.3542 14.4257C24.5654 14.2346 24.8793 13.1628 25.0785 12.6167C25.6002 11.1834 27.7025 9.27534 29.4203 9.53399C30.1595 9.64521 31.1599 10.3205 30.6004 11.2398Z" fill="#231F20"/>
<path fill-rule="evenodd" clip-rule="evenodd" d="M44.8008 14.5558C44.8467 14.5577 44.8932 14.5593 44.9391 14.5612C45.5977 15.9282 46.1677 17.3763 46.9986 18.583C46.442 19.8782 42.784 21.0244 42.8404 18.6987C43.6315 18.3532 44.9971 18.6282 45.6984 18.1869C45.2929 17.075 44.7078 16.1286 44.8008 14.5558Z" fill="#231F20"/>
<path fill-rule="evenodd" clip-rule="evenodd" d="M32.0925 14.5913C32.7174 15.7358 32.9208 16.9384 33.8091 17.8035C34.2091 18.1929 34.987 18.6676 34.6014 19.7506C34.5113 20.006 33.8527 20.5756 33.4726 20.6874C32.0838 21.0971 28.8479 20.772 29.9437 19.0422C31.0922 19.0958 32.6359 19.7874 33.4944 18.9544C32.8351 17.9015 31.6599 15.8185 32.0925 14.5913Z" fill="#231F20"/>
<path fill-rule="evenodd" clip-rule="evenodd" d="M44.2795 26.224C42.1886 27.566 39.857 29.0253 36.4309 28.6868C35.6989 28.0509 35.4198 26.6358 36.131 25.7012C36.5012 26.3371 36.2686 27.5067 37.3003 27.6826C39.2443 28.015 41.5069 26.4945 42.9053 25.9631C43.7724 24.5025 42.8305 23.9653 42.0494 23.0253C40.4502 21.0993 38.305 18.7121 38.383 15.8288C39.0294 15.3605 39.0852 16.5435 39.1779 16.7589C40.0129 18.7115 42.1145 21.2086 43.6482 22.8798C44.0248 23.2913 44.6449 23.6862 44.7139 23.9583C44.9128 24.7496 44.1965 25.6977 44.2795 26.224Z" fill="#231F20"/>
<path fill-rule="evenodd" clip-rule="evenodd" d="M16.714 24.8112C16.0586 24.4375 15.9026 22.7914 15.1332 22.7446C14.0336 22.6779 14.2341 24.8801 14.2385 26.168C13.4816 25.4814 13.3485 23.3676 13.9045 22.2821C13.2708 21.9712 12.9878 22.625 12.6364 22.8555C13.0881 19.5766 17.437 21.3346 16.714 24.8112Z" fill="#231F20"/>
<path fill-rule="evenodd" clip-rule="evenodd" d="M45.6108 27.5894C44.6375 29.4403 43.2607 31.4788 40.4046 31.5381C40.3466 30.9403 40.302 30.0307 40.4078 29.6708C42.5912 29.4612 43.9392 28.3509 45.6108 27.5894Z" fill="#231F20"/>
<path fill-rule="evenodd" clip-rule="evenodd" d="M31.9278 28.7895C33.7494 29.7465 37.0972 29.8494 39.5731 29.777C39.706 30.3189 39.7027 30.9885 39.7079 31.6494C36.5253 31.808 32.7623 31.0212 31.9278 28.7895Z" fill="#231F20"/>
<path fill-rule="evenodd" clip-rule="evenodd" d="M31.5815 30.574C32.8412 33.734 37.1707 33.3702 40.8217 33.283C40.6609 33.6933 40.3126 34.1779 39.8795 34.3532C38.7095 34.8288 35.4826 35.1897 33.8585 34.3279C32.8284 33.7808 32.1666 32.5445 31.6022 31.8199C31.3296 31.4699 29.9725 30.5759 31.5815 30.574Z" fill="#231F20"/>
<path fill-rule="evenodd" clip-rule="evenodd" d="M44.1275 48.0044C42.6492 50.5339 41.2348 53.132 39.481 55.3632C40.2163 53.2032 40.531 49.588 40.642 46.832C42.1802 46.1128 43.4974 46.9939 44.1275 48.0044Z" fill="#81B0C4"/>
<path fill-rule="evenodd" clip-rule="evenodd" d="M52.0819 57.0959C50.427 57.4269 49.2641 59.0339 47.6495 58.9308C48.5368 57.681 50.0917 57.1542 52.0819 57.0959Z" fill="#231F20"/>
<path fill-rule="evenodd" clip-rule="evenodd" d="M52.8121 59.6836C51.4631 59.8259 49.8787 60.0441 48.5105 59.9317C49.1582 58.9432 51.6537 59.2843 52.8121 59.6836Z" fill="#231F20"/>
<path fill-rule="evenodd" clip-rule="evenodd" d="M53.2795 61.9146C51.7634 61.9475 49.879 61.9173 48.438 61.7965C49.2904 60.8818 52.2962 61.457 53.2795 61.9146Z" fill="#231F20"/>
<path fill-rule="evenodd" clip-rule="evenodd" d="M41.275 68.0201C41.4925 69.9224 42.2473 71.8499 42.1527 73.9332C41.3144 74.2157 40.8329 74.4627 39.7098 74.4612C39.6306 72.6906 39.3935 69.9839 39.4644 68.2961C40.0168 68.3326 40.8313 67.9018 41.275 68.0201Z" fill="#DCD9D8"/>
<path fill-rule="evenodd" clip-rule="evenodd" d="M38.8308 39.9843C38.0696 40.4808 37.4212 41.1007 36.6901 41.6308C35.0688 41.7109 34.1841 41.5186 32.993 40.5885C33.0125 40.5138 33.1322 40.5471 33.1367 40.4555C34.8722 41.2282 37.0783 40.1407 38.8308 39.9843Z" fill="#F0D6B7"/>
<path fill-rule="evenodd" clip-rule="evenodd" d="M29.72 51.8042C30.1969 49.7397 32.0652 48.6705 33.7619 47.5337C35.5131 49.7542 36.5782 52.61 37.751 55.3657C34.98 54.5311 32.1486 53.177 29.72 51.8042Z" fill="#81B0C4"/>
<path fill-rule="evenodd" clip-rule="evenodd" d="M39.4644 68.2961C39.3935 69.9839 39.6305 72.6906 39.7098 74.4612C40.8329 74.4627 41.3144 74.2157 42.1526 73.9332C42.2473 71.8499 41.4924 69.9225 41.2749 68.0201C40.8313 67.9018 40.0168 68.3326 39.4644 68.2961ZM21.9764 58.6971C22.717 65.4994 23.7897 71.2175 25.7571 77.241C30.1235 78.5657 35.3874 78.6811 39.2469 77.4858C38.5382 74.0861 38.8478 69.9471 38.4336 66.3192C38.1215 63.5923 38.2806 60.8487 37.8527 58.0666C33.1761 57.0946 26.5659 57.8394 21.9764 58.6971ZM38.9585 58.1093C38.919 61.0307 39.0894 63.9125 39.3126 66.8375C40.4354 66.6691 41.1973 66.5567 42.2405 66.3282C41.9018 63.5122 41.9435 60.3435 41.2534 57.8525C40.4559 57.8601 39.7537 57.8433 38.9585 58.1093ZM44.6542 57.6384C44.1214 57.5164 43.5009 57.6337 42.9918 57.6435C43.2312 60.025 43.8118 62.6528 44.0161 65.1526C44.8172 65.1775 45.2451 64.8 45.904 64.6731C45.9393 62.4788 45.7122 59.4557 44.6542 57.6384ZM53.2785 65.5111C54.9482 65.106 55.9982 63.0627 55.5311 60.9644C55.2177 59.5541 54.6595 56.8986 54.0622 55.9964C53.6208 55.3291 52.4239 54.4555 51.4682 55.0669C49.9137 56.0615 47.175 56.3502 46.0413 57.5542C46.6098 59.4452 46.7862 62.0426 47.0207 64.4387C48.9628 64.5596 51.3524 63.9047 52.9677 64.5997C51.8401 64.9646 50.3769 64.9675 49.4026 65.4994C50.1989 65.8836 52.063 65.806 53.2785 65.5111ZM37.751 55.3657C36.5782 52.6099 35.5131 49.7542 33.7619 47.5336C32.0652 48.6705 30.1968 49.7397 29.72 51.8041C32.1486 53.1769 34.98 54.5311 37.751 55.3657ZM40.642 46.832C40.531 49.588 40.2163 53.2032 39.481 55.3632C41.2348 53.132 42.6492 50.5339 44.1275 48.0044C43.4974 46.9939 42.1802 46.1128 40.642 46.832ZM37.3648 45.6685C36.7004 45.5971 36.1364 46.4317 35.2725 46.0708C35.0746 46.2894 34.8946 46.5262 34.6928 46.7397C36.6009 49.0372 37.4681 52.2968 38.9418 54.9967C39.7326 52.4032 39.6414 49.5618 39.8156 46.731C38.7291 46.8 38.1263 45.7493 37.3648 45.6685ZM35.2574 42.8897C35.1865 43.6766 35.3697 43.9339 35.5282 44.8359C38.117 45.6445 37.665 41.2859 35.2574 42.8897ZM32.3866 41.948C31.2711 41.3391 29.5954 40.6759 28.1545 40.4012C26.3686 40.0599 26.5359 42.8352 26.6117 44.491C26.6712 45.8019 27.3535 47.1881 27.6499 48.059C27.789 48.4656 27.8203 48.8971 28.1683 48.9778C28.7833 49.121 30.8121 48.3105 31.3902 47.9955C32.6128 47.3294 33.5614 46.2718 34.5998 45.5615C34.6133 45.216 34.6264 44.8708 34.6402 44.5253C34.016 44.2144 33.2945 43.9939 32.378 43.9538C32.9997 43.6413 33.9143 43.6458 34.4808 43.274C34.4862 43.1355 34.492 42.9974 34.4968 42.8602C33.4626 42.7807 33.0683 42.3205 32.3866 41.948ZM21.7318 40.0144C20.806 40.9535 24.3285 42.2336 25.4501 42.3025C25.4438 41.7083 25.789 41.148 25.7195 40.7218C24.3874 40.4881 22.6368 40.6423 21.7318 40.0144ZM33.1367 40.4554C33.1322 40.5471 33.0125 40.5137 32.9929 40.5884C34.1841 41.5186 35.0688 41.7109 36.6901 41.6307C37.4212 41.1006 38.0695 40.4807 38.8308 39.9843C37.0783 40.1407 34.8722 41.2282 33.1367 40.4554ZM43.6049 43.6269C43.5548 42.5836 43.2806 40.4381 42.6351 40.0625C41.2804 39.2724 38.8722 41.6577 37.852 42.0214C37.963 42.3407 38.1462 42.5935 38.1603 43.0016C38.7637 42.8532 39.4984 42.9548 40.0213 43.2115C39.4166 43.2791 38.7461 43.2746 38.3461 43.5625C38.1995 43.9859 38.382 44.5628 38.2845 45.1506C39.7197 45.5551 41.359 45.7705 43.1734 45.8237C43.5263 45.3653 43.6466 44.4923 43.6049 43.6269ZM20.1732 40.9227C19.8825 40.7157 17.9157 38.1589 17.6463 38.265C14.0875 39.6673 10.7598 42.0919 7.7862 44.3852C10.6214 50.4635 11.7658 57.9102 11.9681 65.0877C15.2159 66.6054 18.0686 68.7933 22.4758 69.0217C21.9658 65.4166 21.5002 62.2002 21.2108 58.806C20.1034 58.3397 18.5147 58.8272 17.4784 58.6614C17.4696 57.4137 19.0611 58.115 19.1936 57.276C19.2935 56.6413 18.318 56.5933 18.6356 55.5939C19.4458 55.8881 19.8712 56.538 20.7352 56.7821C21.5247 55.0564 20.7242 52.0032 20.838 50.5609C20.8595 50.2901 20.9733 49.0606 21.5804 49.2763C22.1178 49.4672 21.5497 52.5461 21.6086 53.9112C21.6623 55.1689 21.4566 56.3858 21.9664 57.1753C26.2251 56.5961 30.5527 56.2218 35.1606 56.0955C34.1468 55.6609 32.9426 55.2496 31.6222 54.506C30.9065 54.1029 28.6503 53.2641 28.4437 52.5848C28.1142 51.5025 29.3084 50.9259 29.5126 49.9981C27.3629 51.1694 26.9435 48.8753 26.435 47.25C25.9742 45.7778 25.7119 44.6782 25.5989 43.8291C23.7471 42.9471 21.7671 42.0538 20.1732 40.9227ZM41.7241 38.5743C44.6892 37.1378 45.2236 43.9432 44.0614 46.1355C44.241 46.7894 44.8589 47.0397 45.111 47.6275C43.4564 50.589 41.6185 53.3534 39.9302 56.2801C41.1861 55.499 42.98 56.1404 44.4579 55.5557C44.9981 55.3423 45.3892 54.1067 45.7982 53.1182C46.9232 50.3987 48.1044 46.9701 48.6298 44.375C48.7485 43.7836 49.0719 42.4952 48.9994 41.9689C48.8701 41.0266 47.5905 40.3278 46.9396 39.7452C45.7404 38.6689 44.9853 37.7218 43.7345 36.7153C43.2273 37.4634 42.1388 37.966 41.7241 38.5743ZM13.392 12.3025C11.9791 13.8557 12.2748 16.766 12.4459 18.8365C14.9997 17.2314 18.3894 18.9634 18.3574 21.6936C19.5767 21.6612 18.8129 20.1721 18.5924 19.2128C17.8716 16.0795 19.8067 12.6753 18.6801 9.80991C16.4928 9.97561 14.6958 10.8682 13.392 12.3025ZM23.5015 3.2878C20.3029 4.19357 16.2036 6.51568 14.8892 9.38651C15.907 9.23875 16.6135 8.72593 17.6175 8.66247C17.9969 8.63779 18.494 8.82145 18.9301 8.71311C19.7992 8.49773 20.5326 6.55093 21.1882 5.82657C21.8273 5.1192 22.5954 4.81696 23.1211 4.17209C23.4589 4.00927 23.9582 4.02048 23.9774 3.51376C23.831 3.35735 23.6769 3.23811 23.5015 3.2878ZM40.1518 4.13972C36.8319 2.26824 31.2125 0.86055 27.681 2.61952C24.8314 4.03907 20.9796 6.38779 19.6663 9.36407C20.8931 12.2362 19.3029 14.8679 19.2014 17.7839C19.1475 19.3355 19.9326 20.69 19.9928 22.3791C19.573 23.0711 18.2904 23.1564 17.4026 23.1089C17.1037 21.6147 16.5805 19.9352 15.0405 19.7666C12.8613 19.5285 11.268 21.3304 11.169 23.2134C11.0518 25.4278 12.8713 29.098 15.4502 28.8432C16.4465 28.7448 16.6912 27.7471 17.7766 27.7573C18.3649 28.9301 16.8691 29.2984 16.7152 30.1371C16.6751 30.3538 16.8393 31.2006 16.9348 31.5977C17.4032 33.5314 18.4474 36.0339 19.4752 37.5061C20.7797 39.3734 23.3426 39.6548 26.0998 39.8378C26.5922 38.7778 28.4064 38.865 29.5885 39.1423C28.1718 38.5817 26.8548 37.2227 25.7633 36.0198C24.5096 34.6397 23.2396 33.1593 23.1754 31.3554C25.5447 34.6394 27.502 37.5073 31.8102 38.9519C35.0701 40.0442 38.8773 38.4512 41.3821 36.6939C42.4215 35.9634 43.0419 34.8044 43.7807 33.7435C46.545 29.7708 47.8349 24.1003 47.5513 18.6041C47.4346 16.3375 47.4397 14.0785 46.6784 12.5535C45.8829 10.9589 43.192 9.53234 41.6169 10.9746C41.325 9.42401 42.9267 8.46503 44.8082 9.02305C43.4666 7.29324 42.0586 5.21471 40.1518 4.13972ZM46.3371 55.283C48.9314 53.9945 53.7786 51.8147 55.4051 55.2878C56.0053 56.568 56.7094 58.732 57.0203 60.0535C57.4594 61.9179 56.5442 65.8366 54.6262 66.4622C52.932 67.0147 50.9553 66.981 48.9147 66.5715C48.6744 66.3718 48.4069 66.0237 48.2199 65.6609C46.7628 65.6044 45.3985 65.739 44.2474 66.3375C44.3565 67.4141 43.6277 67.5868 42.9444 67.8086C42.4378 69.8153 43.9578 72.4358 43.594 74.2657C43.3345 75.5692 41.7292 75.7708 40.5493 76.0147C40.5108 76.7391 40.601 77.3438 40.6815 77.9567C40.4117 78.9499 39.2016 79.5153 38.0551 79.6538C34.2829 80.107 28.5553 80.3106 24.9269 79.007C23.9144 76.5257 23.1167 73.5077 22.2734 70.6743C18.7346 71.0519 15.8725 69.1487 13.1743 67.9018C12.2401 67.4691 10.9478 67.2308 10.5988 66.4878C10.2605 65.7685 10.3989 64.39 10.315 63.0878C10.1013 59.7618 9.91837 56.5538 9.03929 53.1484C8.64458 51.6202 7.9566 50.2718 7.47666 48.7993C7.03306 47.4346 6.25802 45.748 6.05589 44.3871C5.75617 42.3702 7.65711 42.258 8.87264 41.3839C10.7517 40.0323 12.2266 39.2849 14.2616 38.065C14.8644 37.7038 16.682 36.7894 16.8888 36.3682C17.2998 35.5333 16.1833 34.356 15.8848 33.7016C15.4126 32.6666 15.1664 31.7875 15.0987 30.7663C13.3916 30.4968 12.0975 29.4817 11.3158 28.3371C10.0228 26.4429 9.126 22.9384 10.2448 20.2727C10.3325 20.0628 10.7701 19.65 10.8346 19.3275C10.962 18.6926 10.595 17.8484 10.5722 17.173C10.4547 13.7083 11.159 10.723 13.4935 9.67817C14.4412 5.90606 17.8333 4.65189 21.0291 2.77721C22.2237 2.07658 23.5405 1.62881 24.9006 1.12881C29.7793 -0.665092 37.2647 -0.327271 41.3138 2.73235C43.0307 4.02978 45.7751 6.7692 46.7567 8.75253C49.3494 13.9887 49.1652 22.7397 47.3518 29.1093C47.108 29.9644 46.7545 31.2214 46.2608 32.2487C45.9165 32.966 44.8467 34.4012 44.9766 35.0346C45.1104 35.6894 47.416 37.4384 47.9103 37.9147C48.8005 38.7727 50.4917 39.9115 50.6287 40.9942C50.776 42.1464 50.1206 43.7227 49.7886 44.8346C48.6786 48.5451 47.5956 51.975 46.3371 55.283Z" fill="#231F20"/>
<path fill-rule="evenodd" clip-rule="evenodd" d="M29.0292 29.5977C29.1699 29.4105 29.9437 29.1262 31.0264 29.647C31.0264 29.647 29.7432 29.8608 29.85 31.9983L29.3153 31.8912C29.3153 31.8912 28.7627 29.9531 29.0292 29.5977Z" fill="#F7E4CD"/>
<path fill-rule="evenodd" clip-rule="evenodd" d="M38.4048 47.9698C38.4048 48.2942 38.1414 48.5573 37.8164 48.5573C37.4918 48.5573 37.2284 48.2942 37.2284 47.9698C37.2284 47.6455 37.4918 47.382 37.8164 47.382C38.1414 47.382 38.4048 47.6455 38.4048 47.9698Z" fill="#1D1919"/>
<path fill-rule="evenodd" clip-rule="evenodd" d="M38.9928 50.6942C38.9928 51.0186 38.7295 51.2816 38.4045 51.2816C38.0798 51.2816 37.8165 51.0186 37.8165 50.6942C37.8165 50.3698 38.0798 50.1064 38.4045 50.1064C38.7295 50.1064 38.9928 50.3698 38.9928 50.6942Z" fill="#1D1919"/>
</g>
<defs>
<clipPath id="clip0">
<rect width="58" height="80" fill="white"/>
</clipPath>
</defs>
</svg>
