<svg width="129" height="33" viewBox="0 0 129 33" fill="none" xmlns="http://www.w3.org/2000/svg">
<path d="M41.3906 25.7475L42.9836 22.0429C44.7274 23.3283 47.003 24.0088 49.2773 24.0088C50.9451 24.0088 52.0076 23.3662 52.0076 22.3838C51.9696 19.6616 41.9604 21.779 41.8844 14.9369C41.8464 11.4596 44.9553 8.77527 49.3546 8.77527C51.9708 8.77527 54.5871 9.41795 56.4448 10.8927L54.9569 14.6768C53.2473 13.5833 51.1363 12.8207 49.1279 12.8207C47.7628 12.8207 46.8523 13.4634 46.8523 14.2955C46.8903 16.9798 56.9754 15.5051 57.0894 22.0455C57.0894 25.5985 54.0552 28.0934 49.7332 28.0934C46.5471 28.0909 43.6282 27.3346 41.3906 25.7475Z" fill="white"/>
<path d="M102.887 20.7008C102.093 22.0997 100.587 23.0442 98.8596 23.0442C96.3054 23.0442 94.2336 20.9798 94.2336 18.4318C94.2336 15.8838 96.3041 13.8194 98.8596 13.8194C100.587 13.8194 102.093 14.7639 102.887 16.1629L107.314 13.7172C105.656 10.7677 102.491 8.77271 98.8596 8.77271C93.5093 8.77271 89.1721 13.0972 89.1721 18.4318C89.1721 23.7664 93.5093 28.0909 98.8596 28.0909C102.493 28.0909 105.656 26.096 107.314 23.1465L102.887 20.7008Z" fill="white"/>
<path d="M64.8558 0.7323H59.3194V27.7121H64.8558V0.7323Z" fill="white"/>
<path d="M109.468 0.7323V27.7134H115.004V19.6288L121.564 27.7134H128.639L120.297 18.1098L128.032 9.15023H121.26L115.004 16.5985V0.7323H109.468Z" fill="white"/>
<path d="M81.2689 20.7374C80.4724 22.0606 78.8046 23.0429 76.9469 23.0429C74.3927 23.0429 72.3209 20.9785 72.3209 18.4305C72.3209 15.8826 74.3927 13.8182 76.9469 13.8182C78.8046 13.8182 80.4724 14.8384 81.2689 16.1995V20.7374ZM81.2689 9.15023V11.3434C80.3584 9.83079 78.122 8.77271 75.7704 8.77271C70.9166 8.77271 67.0871 13.0442 67.0871 18.4129C67.0871 23.7816 70.9166 28.0909 75.7704 28.0909C78.1208 28.0909 80.3584 27.0328 81.2676 25.5202V27.7121H86.8028V9.15023H81.2689Z" fill="white"/>
<path d="M7.19939 20.7045C7.19939 22.5871 5.66838 24.1136 3.78026 24.1136C1.89215 24.1136 0.361145 22.5871 0.361145 20.7045C0.361145 18.8219 1.89215 17.2954 3.78026 17.2954H7.19939V20.7045Z" fill="#E01E5A"/>
<path d="M8.90894 20.7045C8.90894 18.8219 10.4399 17.2954 12.3281 17.2954C14.2162 17.2954 15.7472 18.8219 15.7472 20.7045V29.2272C15.7472 31.1098 14.2162 32.6363 12.3281 32.6363C10.4399 32.6363 8.90894 31.1098 8.90894 29.2272V20.7045Z" fill="#E01E5A"/>
<path d="M12.3281 7.06818C10.4399 7.06818 8.90894 5.54167 8.90894 3.65909C8.90894 1.77651 10.4399 0.25 12.3281 0.25C14.2162 0.25 15.7472 1.77651 15.7472 3.65909V7.06818H12.3281Z" fill="#36C5F0"/>
<path d="M12.3281 8.77271C14.2162 8.77271 15.7472 10.2992 15.7472 12.1818C15.7472 14.0644 14.2162 15.5909 12.3281 15.5909H3.78026C1.89215 15.5909 0.361145 14.0644 0.361145 12.1818C0.361145 10.2992 1.89215 8.77271 3.78026 8.77271H12.3281Z" fill="#36C5F0"/>
<path d="M26.0045 12.1818C26.0045 10.2992 27.5355 8.77271 29.4237 8.77271C31.3118 8.77271 32.8428 10.2992 32.8428 12.1818C32.8428 14.0644 31.3118 15.5909 29.4237 15.5909H26.0045V12.1818Z" fill="#2EB67D"/>
<path d="M24.295 12.1818C24.295 14.0644 22.764 15.5909 20.8759 15.5909C18.9877 15.5909 17.4567 14.0644 17.4567 12.1818V3.65909C17.4567 1.77652 18.9877 0.25 20.8759 0.25C22.764 0.25 24.295 1.77652 24.295 3.65909V12.1818Z" fill="#2EB67D"/>
<path d="M20.8759 25.8181C22.764 25.8181 24.295 27.3446 24.295 29.2272C24.295 31.1098 22.764 32.6363 20.8759 32.6363C18.9877 32.6363 17.4567 31.1098 17.4567 29.2272V25.8181H20.8759Z" fill="#ECB22E"/>
<path d="M20.8758 24.1136C18.9877 24.1136 17.4567 22.5871 17.4567 20.7045C17.4567 18.8219 18.9877 17.2954 20.8758 17.2954H29.4236C31.3117 17.2954 32.8427 18.8219 32.8427 20.7045C32.8427 22.5871 31.3117 24.1136 29.4236 24.1136H20.8758Z" fill="#ECB22E"/>
</svg>
