<svg width="146" height="30" viewBox="0 0 146 30" fill="none" xmlns="http://www.w3.org/2000/svg">
<path d="M142.36 6.2849L139.065 15.6449C138.466 17.3249 138.167 18.2849 137.613 19.9049H137.553C137.118 18.5099 136.729 17.3849 136.16 15.7349L132.955 6.2699H129.12L135.755 23.6399C135.606 24.0149 135.456 24.4049 135.291 24.8099C134.737 26.1599 133.419 27.0449 131.966 27.0449H130.319V29.9999H132.011C134.752 29.9999 137.223 28.3349 138.242 25.7699C140.353 20.4749 143.948 11.4599 146 6.2849H142.36Z" fill="#06AC38"/>
<path d="M50.3541 20.31C50.3541 26.595 47.4784 30 41.6672 30C37.3387 30 34.7326 27.72 33.804 24.285H37.3087C37.9078 25.875 39.1509 27.3 41.7271 27.3C45.6961 27.3 47.104 24.825 47.104 20.115C47.074 20.115 47.074 20.085 47.0441 20.085C46.1903 21.57 44.2732 22.89 41.2328 22.89C36.3502 22.89 33.2349 19.35 33.2349 14.385C33.2349 9.225 36.6048 5.745 41.2628 5.745C44.2732 5.745 46.0855 7.035 47.074 8.46C47.0441 8.1 47.0441 7.725 47.0441 7.365V6.27H50.3541V20.31ZM36.8744 14.355C36.8744 17.73 38.7615 20.145 41.9967 20.145C44.9023 20.145 47.1489 18.09 47.1489 14.25C47.1489 10.845 45.1719 8.565 41.9967 8.565C38.8214 8.565 36.8744 10.845 36.8744 14.355Z" fill="#06AC38"/>
<path d="M55.8209 15.84C55.9557 18.885 57.9028 21.3 61.2727 21.3C63.6541 21.3 64.8074 20.175 65.691 18.69H69.031C68.0425 21.825 65.3016 24.075 61.1379 24.075C55.791 24.075 52.451 20.475 52.451 15.045C52.451 9.61504 55.9258 5.79004 61.1379 5.79004C66.7844 5.79004 69.3905 10.095 69.3905 14.76V15.855H55.8209V15.84ZM65.9157 13.2C65.6162 10.455 63.8937 8.50504 61.063 8.50504C58.3521 8.50504 56.2702 10.29 55.9407 13.2H65.9157Z" fill="#06AC38"/>
<path d="M74.7374 6.28499V8.50499C75.2915 6.88499 76.984 5.86499 78.931 5.86499C79.3654 5.86499 79.5601 5.89499 79.7848 5.92499V8.96999C79.4852 8.90999 78.991 8.86499 78.6315 8.86499C75.5012 8.86499 74.9021 11.175 74.9021 14.655V23.655H71.5622V9.40499C71.5622 8.30999 71.5622 7.34999 71.5322 6.29999H74.7374V6.28499Z" fill="#06AC38"/>
<path d="M114.083 21.165C113.184 22.65 111.507 24.075 108.571 24.075C104.542 24.075 102.565 21.6 102.565 17.1V6.28503H105.89V15.84C105.89 19.245 107.014 21.3 109.725 21.3C113.289 21.3 113.918 18.06 113.918 14.25V6.28503H117.258V21.03C117.258 21.93 117.258 22.785 117.288 23.64H114.083V21.165Z" fill="#06AC38"/>
<path d="M124.762 6.28497H127.997V8.86497H124.762V19.29C124.762 20.94 125.586 21.435 126.874 21.435C127.098 21.435 127.503 21.405 127.698 21.375V23.85C127.203 23.91 126.844 23.985 126.41 23.985C123.339 23.985 121.392 22.965 121.392 19.485V8.86497H118.786V6.28497H121.392V1.58997H124.762V6.28497Z" fill="#06AC38"/>
<path d="M3.45979 17.34H0V23.64H3.45979V17.34Z" fill="#06AC38"/>
<path d="M13.0304 1.155C11.1732 0.165 9.88511 0 6.84469 0H0V14.34H3.45979H3.90911H6.81473C9.52565 14.34 11.5476 14.175 13.3299 12.99C15.277 11.7 16.2805 9.555 16.2805 7.08C16.2805 4.395 15.0373 2.25 13.0304 1.155ZM7.60853 11.34H3.45979V3.075L7.3689 3.045C10.9335 3 12.7158 4.26 12.7158 7.11C12.7158 10.17 10.5142 11.34 7.60853 11.34Z" fill="#06AC38"/>
<path d="M81.8217 0H87.603C96.26 0.06 100.424 4.29 100.454 11.88C100.484 18.345 97.1436 23.565 88.1721 23.655H81.8367V0H81.8217ZM85.3264 20.7H87.3484C93.6239 20.7 96.904 18.3 96.904 11.865C96.889 6.21 93.6389 2.97 87.6779 2.97C86.5246 2.97 85.3264 3 85.3264 3V20.7Z" fill="#06AC38"/>
<path d="M28.4122 23.655C28.3073 22.965 28.3073 22.53 28.2474 21.27C26.9294 23.16 25.177 23.985 22.4062 23.985C18.7667 23.985 16.1307 22.2 16.1307 18.96C16.1307 15.225 19.6953 13.995 24.3233 13.365C25.4766 13.2 26.7647 13.065 27.888 12.975C27.888 9.53996 25.9858 8.50496 23.9938 8.50496C22.0018 8.50496 20.549 9.89996 20.549 11.73H17.3139C17.3139 8.20496 20.0847 5.83496 24.0687 5.83496C28.0527 5.83496 31.1231 7.48496 31.1231 13.845V17.22C31.1231 20.025 31.2579 22.08 31.5574 23.67H28.4122V23.655ZM19.7253 18.915C19.7253 20.535 21.0433 21.555 23.1551 21.555C26.2554 21.555 27.9179 19.665 27.9179 16.29C27.9179 15.855 27.9179 15.555 27.9479 15.36C22.3014 15.945 19.7253 16.5 19.7253 18.915Z" fill="#06AC38"/>
</svg>
