<svg width="107" height="47" viewBox="0 0 107 47" fill="none" xmlns="http://www.w3.org/2000/svg">
<path d="M13.6421 21.5802C13.6421 22.1698 13.7053 22.6478 13.8158 22.9984C13.9421 23.3489 14.1 23.7313 14.3211 24.1456C14.4 24.2731 14.4316 24.4006 14.4316 24.5121C14.4316 24.6714 14.3368 24.8308 14.1316 24.9901L13.1368 25.6594C12.9947 25.755 12.8526 25.8028 12.7263 25.8028C12.5684 25.8028 12.4105 25.7231 12.2526 25.5797C12.0316 25.3407 11.8421 25.0857 11.6842 24.8308C11.5263 24.5599 11.3684 24.2572 11.1947 23.8907C9.96316 25.3566 8.41579 26.0896 6.55263 26.0896C5.22632 26.0896 4.16842 25.7072 3.39474 24.9423C2.62106 24.1775 2.22632 23.1577 2.22632 21.883C2.22632 20.5286 2.7 19.4291 3.66316 18.6006C4.62632 17.772 5.90527 17.3577 7.53158 17.3577C8.06842 17.3577 8.62106 17.4055 9.20527 17.4852C9.78948 17.5649 10.3895 17.6923 11.0211 17.8357V16.6725C11.0211 15.4616 10.7684 14.6171 10.279 14.1231C9.77369 13.6291 8.92105 13.3901 7.70527 13.3901C7.15263 13.3901 6.58421 13.4539 6 13.5973C5.41579 13.7407 4.84737 13.916 4.29474 14.139C4.04211 14.2506 3.85263 14.3143 3.74211 14.3462C3.63158 14.378 3.55263 14.394 3.48948 14.394C3.26842 14.394 3.1579 14.2346 3.1579 13.9V13.1192C3.1579 12.8643 3.18948 12.6731 3.26842 12.5616C3.34737 12.45 3.48948 12.3385 3.71053 12.2269C4.26316 11.9401 4.92632 11.7011 5.7 11.5099C6.47369 11.3028 7.29474 11.2072 8.16316 11.2072C10.0421 11.2072 11.4158 11.6374 12.3 12.4978C13.1684 13.3583 13.6105 14.6649 13.6105 16.4176V21.5802H13.6421ZM7.23158 24.0022C7.75263 24.0022 8.28948 23.9066 8.8579 23.7154C9.42632 23.5242 9.93158 23.1736 10.3579 22.6956C10.6105 22.3929 10.8 22.0583 10.8947 21.6758C10.9895 21.2934 11.0526 20.8313 11.0526 20.2896V19.6203C10.5947 19.5088 10.1053 19.4132 9.6 19.3495C9.09474 19.2857 8.60527 19.2539 8.11579 19.2539C7.0579 19.2539 6.28421 19.461 5.76316 19.8912C5.24211 20.3214 4.98948 20.9269 4.98948 21.7236C4.98948 22.4725 5.17895 23.0302 5.57369 23.4127C5.95263 23.811 6.50527 24.0022 7.23158 24.0022ZM19.9105 25.7231C19.6263 25.7231 19.4368 25.6753 19.3105 25.5638C19.1842 25.4682 19.0737 25.2451 18.979 24.9423L15.2684 12.6253C15.1737 12.3066 15.1263 12.0995 15.1263 11.9879C15.1263 11.733 15.2526 11.5896 15.5053 11.5896H17.0526C17.3526 11.5896 17.5579 11.6374 17.6684 11.7489C17.7947 11.8445 17.8895 12.0676 17.9842 12.3703L20.6368 22.9187L23.1 12.3703C23.179 12.0517 23.2737 11.8445 23.4 11.7489C23.5263 11.6533 23.7474 11.5896 24.0316 11.5896H25.2947C25.5947 11.5896 25.8 11.6374 25.9263 11.7489C26.0526 11.8445 26.1632 12.0676 26.2263 12.3703L28.7211 23.0462L31.4526 12.3703C31.5474 12.0517 31.6579 11.8445 31.7684 11.7489C31.8947 11.6533 32.1 11.5896 32.3842 11.5896H33.8526C34.1053 11.5896 34.2474 11.7171 34.2474 11.9879C34.2474 12.0676 34.2316 12.1473 34.2158 12.2429C34.2 12.3385 34.1684 12.466 34.1053 12.6412L30.3 24.9583C30.2053 25.2769 30.0947 25.4841 29.9684 25.5797C29.8421 25.6753 29.6368 25.739 29.3684 25.739H28.0105C27.7105 25.739 27.5053 25.6912 27.379 25.5797C27.2526 25.4682 27.1421 25.261 27.079 24.9423L24.6316 14.6649L22.2 24.9264C22.1211 25.2451 22.0263 25.4522 21.9 25.5638C21.7737 25.6753 21.5526 25.7231 21.2684 25.7231H19.9105ZM40.2 26.1533C39.379 26.1533 38.5579 26.0577 37.7684 25.8665C36.979 25.6753 36.3632 25.4682 35.9526 25.2291C35.7 25.0857 35.5263 24.9264 35.4632 24.783C35.4 24.6396 35.3684 24.4802 35.3684 24.3368V23.5242C35.3684 23.1896 35.4947 23.0302 35.7316 23.0302C35.8263 23.0302 35.9211 23.0462 36.0158 23.078C36.1105 23.1099 36.2526 23.1736 36.4105 23.2374C36.9474 23.4764 37.5316 23.6676 38.1474 23.7951C38.779 23.9225 39.3947 23.9863 40.0263 23.9863C41.0211 23.9863 41.7947 23.811 42.3316 23.4605C42.8684 23.1099 43.1526 22.6 43.1526 21.9467C43.1526 21.5006 43.0105 21.1341 42.7263 20.8313C42.4421 20.5286 41.9053 20.2577 41.1316 20.0028L38.8421 19.2857C37.6895 18.9192 36.8368 18.3775 36.3158 17.6605C35.7947 16.9594 35.5263 16.1786 35.5263 15.35C35.5263 14.6808 35.6684 14.0912 35.9526 13.5813C36.2368 13.0714 36.6158 12.6253 37.0895 12.2747C37.5632 11.9083 38.1 11.6374 38.7316 11.4462C39.3632 11.255 40.0263 11.1753 40.7211 11.1753C41.0684 11.1753 41.4316 11.1912 41.779 11.239C42.1421 11.2868 42.4737 11.3506 42.8053 11.4143C43.1211 11.494 43.4211 11.5736 43.7053 11.6692C43.9895 11.7649 44.2105 11.8605 44.3684 11.9561C44.5895 12.0835 44.7474 12.211 44.8421 12.3544C44.9368 12.4819 44.9842 12.6572 44.9842 12.8802V13.6291C44.9842 13.9638 44.8579 14.139 44.6211 14.139C44.4947 14.139 44.2895 14.0753 44.0211 13.9478C43.1211 13.5335 42.1105 13.3264 40.9895 13.3264C40.0895 13.3264 39.379 13.4698 38.8895 13.7725C38.4 14.0753 38.1474 14.5374 38.1474 15.1907C38.1474 15.6368 38.3053 16.0192 38.6211 16.322C38.9368 16.6247 39.5211 16.9275 40.3579 17.1984L42.6 17.9154C43.7368 18.2819 44.5579 18.7918 45.0474 19.4451C45.5368 20.0984 45.7737 20.8473 45.7737 21.6758C45.7737 22.361 45.6316 22.9824 45.3632 23.5242C45.0789 24.066 44.7 24.544 44.2105 24.9264C43.7211 25.3247 43.1368 25.6116 42.4579 25.8187C41.7474 26.0418 41.0053 26.1533 40.2 26.1533Z" fill="white"/>
<path fill-rule="evenodd" clip-rule="evenodd" d="M43.1842 33.8973C37.9895 37.7693 30.4421 39.8248 23.9526 39.8248C14.8579 39.8248 6.66316 36.4308 0.473685 30.7902C-0.0157885 30.344 0.426317 29.7385 1.01053 30.0891C7.70526 34.0088 15.9632 36.383 24.5053 36.383C30.2684 36.383 36.6 35.172 42.4263 32.6863C43.2947 32.288 44.0368 33.2599 43.1842 33.8973Z" fill="#FF9900"/>
<path fill-rule="evenodd" clip-rule="evenodd" d="M45.3473 31.4115C44.6842 30.5511 40.9579 30.9973 39.2684 31.2044C38.7631 31.2681 38.6842 30.822 39.1421 30.4874C42.1105 28.3841 46.9894 28.9896 47.5579 29.6907C48.1263 30.4077 47.4 35.3313 44.621 37.6896C44.1947 38.056 43.7842 37.8648 43.9737 37.3868C44.6052 35.8093 46.0105 32.2561 45.3473 31.4115Z" fill="#FF9900"/>
<path d="M107 0H60V47H107V0Z" fill="url(#paint0_linear)"/>
<path fill-rule="evenodd" clip-rule="evenodd" d="M95.7411 25.1994L95.9667 23.6108C98.047 24.8569 98.0741 25.3716 98.0735 25.3857C98.07 25.3886 97.7151 25.6847 95.7411 25.1994ZM94.5996 24.8822C91.0041 23.7941 85.9968 21.497 83.9705 20.5394C83.9705 20.5312 83.9729 20.5235 83.9729 20.5153C83.9729 19.7369 83.3396 19.1035 82.5605 19.1035C81.7827 19.1035 81.1494 19.7369 81.1494 20.5153C81.1494 21.2937 81.7827 21.9271 82.5605 21.9271C82.9025 21.9271 83.2127 21.7996 83.4577 21.5969C85.8417 22.7255 90.8102 24.9891 94.4322 26.0584L92.9998 36.1669C92.9957 36.1945 92.994 36.2221 92.994 36.2497C92.994 37.1398 89.0536 38.7748 82.6152 38.7748C76.1086 38.7748 72.1265 37.1398 72.1265 36.2497C72.1265 36.2227 72.1248 36.1963 72.1213 36.1698L69.1285 14.3107C71.7188 16.0938 77.2901 17.0373 82.6187 17.0373C87.9391 17.0373 93.501 16.0973 96.0965 14.3195L94.5996 24.8822ZM68.8125 12.0306C68.8548 11.2575 73.2974 8.2248 82.6187 8.2248C91.9388 8.2248 96.3821 11.2569 96.425 12.0306V12.2944C95.9138 14.0281 90.1563 15.8623 82.6187 15.8623C75.0682 15.8623 69.3077 14.0223 68.8125 12.2862V12.0306ZM97.6 12.0436C97.6 10.0079 91.7637 7.0498 82.6187 7.0498C73.4737 7.0498 67.6375 10.0079 67.6375 12.0436L67.6927 12.4865L70.9521 36.2944C71.0303 38.9569 78.1308 39.9498 82.6152 39.9498C88.18 39.9498 94.092 38.6702 94.1684 36.2961L95.576 26.3692C96.3592 26.5566 97.0036 26.6523 97.5212 26.6523C98.2162 26.6523 98.6862 26.4825 98.9712 26.143C99.205 25.8645 99.2943 25.5273 99.2273 25.1683C99.0752 24.3552 98.1099 23.4787 96.1441 22.3571L97.54 12.5094L97.6 12.0436Z" fill="white"/>
<defs>
<linearGradient id="paint0_linear" x1="60" y1="47" x2="107" y2="0" gradientUnits="userSpaceOnUse">
<stop stop-color="#1B660F"/>
<stop offset="1" stop-color="#6CAE3E"/>
</linearGradient>
</defs>
</svg>
